<?xml version="1.0" encoding="UTF-8"?>
<svg id="Layer_7" data-name="Layer 7" xmlns="http://www.w3.org/2000/svg" viewBox="0 0 1000 1000">
  <defs>
    <style>
      .cls-1 {
        fill: #231f20;
      }
    </style>
  </defs>
  <path class="cls-1" d="m486.88,742.25c-13.04-8.79-32.69-45.06-39.12-58.77,11.39,7.24,28.3,32.97,37.55,42.67,6.84,7.05,32.23,31.86,40.87,37.27,72.64,64.27,53.91,59.35,158.25,134.25,19.53,14.02,72.96,20.77,102.14,16.89,28.3,13.79,56.05,13.42,74.97-.29,18.09-4.03,47.92-11.5,46.15-41.95-1.44-24.83-48.88-158.64-67.9-207.78-23.86-61.62-38.25-85.42-42.61-114.28-4.15-27.46-10.89-46.15,2.92-56.99,29.71-23.33,39.06-77.72,12.45-123.84-17.18-29.78-46.16-89.84-43.55-111.77-3.11-5.94-7.81-11.07-13.04-15.19-4.16-2.77-9.1-4.19-13.08-7.25-16.62-12.48-24.19-29.29-24.2-49.9-.03-3.42.31-6.83.73-10.22.15.67.3,1.34.45,2.01,1.92,8.13,5.77,15.71,10.13,22.78,4.66,6.79,10.53,12.63,16.31,18.46,2.64,2.7,5.21,5.48,7.82,8.21,2.44,2.3,5.19,4.25,7.53,6.65,2.56,2.43,3.95,5.69,5.38,8.85,2.42,4.71,3.91,9.86,4.47,15.12,11.09-.42,33.53,9.43,5.65-53.95-15.33-34.86-8.16-86.57-31.56-112.08-29.12-31.75-50.65-8.84-103.9,7.93-61.53,19.37-108.83,20.1-175.91,28.88-47.99,6.28-112.6,37.85-134.41,57.24-64.94,57.76-107.38,67.3-188.22,93.29-65.26,20.97-60.36,17.34-26.82,97.06,2.83,6.73,78.13,121.86,90.15,139.05,21.48,30.73,26.42,93.5,27.54,116.83.27,5.66,3.95,7.4,9.84,4.38,15.99-8.21,48.62-27.02,70.44-53.35,12.34-30.36,15.34-52.99,21.4-85.89,7.48-42.06,64.18-115.14,65.96-113.91-14.84,24.68-43.67,77.54-50.48,107.67-4.45,45.49-13.59,75.82-31.59,106.27-4.78,72.74,8.96,150.51,10.45,154.16,21.65,53.03,100.25,86.45,192.49,15.6-5.88-2.24-25.7-16.84-35.65-24.1Zm5.31-302.86c-7.6,3.85-8.33,4.45-13.57,7.36-5.08,3.34-27.33,14.04-37.02,23.81,19.71-25.99,59.98-51.31,89.27-58.59,8.46-1.72,17.32-3.35,25.62-1.34,10.04,2.55,19.2,7.75,29.31,10.09,3.24.89,14.01,4.53,17.3,5.19.83.25,2.12.32,1.99,1.57-.16-.39-.45-.62-.86-.69-1.75-.08-3.51.19-5.27.41-19.49,3.82-38.51-.66-57.75-1.46-13.07.92-23.41,3.73-34.97,7.76.21-.08,1-.39,1.54-.61-10.06,3.9-9.06,3.44-15.6,6.5Zm50.26,78.35c-17.61-1.67-27.15-18.07-30.44-33.91,0-.37-.53-2.27.01-1.34,1.66,2.1,3.6,3.96,5.47,5.87,9.84,10.29,21.96,18.28,35.5,22.75,6.28,2.67,12.35,6.26,19.31,6.8-9.76,3.08-19.98,1.49-29.84-.18Zm48.8-37.64c-.41-1.52-1.13-2.88-2.05-4.09-.34,1.67-4.12,7.89-8.94,5.51-4.58-2.26-3.73-9.45-2.99-11.39-12.87-1.62-24.74,13.98-11.07,23.16,11.17,7.5,20.2-1.16,23.07-4.55-3.88,10.51-14.19,14.05-22.87,11.35-4.48-1.39-15.47-8.91-12.6-20.63,1.23-5.01,5.72-10.66,10.9-12.19,8.5-2.51,19.8.64,23.7,5.15,3.14,3.64,2.85,7.68,2.85,7.68Zm-.69-24.67c-9.86,1.64-19.72,3.58-29.75,3.55-10.23.17-20.41-.91-30.62-1.45-6.15-.13-12.61-1.17-18.42,1.39,7.27-5.08,16.04-7,24.61-8.66,14.69-2.87,29.63-2.13,44.4-.44,6.52.49,13.07.95,19.49,2.21.84.23,1.72.39,2.49.81.74.62,1.41,1.35,2.33,1.72-5.28-1.33-9.31.05-14.54.88Zm219.92,170.38c2.61,8.78,3.85,17.91,6.36,26.71,4.03,13.88,7.14,27.98,9.36,42.25-17.14-25.78-19.99-38.44-15.72-68.96Zm-11.67-165.1c-7.1,8.2-20.54,9.4-24.2-3.96,5.32,5.29,14.87,4.98,20.04.48,11.18-9.74,3.62-21.77,3.61-23,.64.72,10.72,12.75.55,26.48Zm1.96-43.11c3.59-.81,9.33.09,14.96.28.58-.14,1.15-.3,1.72-.45-1.35.82-2.66,1.7-4.02,2.5-4.37,2.5-9.08,4.38-13.73,6.29-3.27,1.62-7.22,3.34-10.47,4.27-11.94,5.22-16.59,7.78-24.63,17.83,3.58-14.57,13.57-22.22,24.73-27.98,3.63-1.97,7.55-1.55,11.44-2.75Zm-49.01.85c3.6-5.85,16.94-13.82,22.08-27.21,2.17-5.11,3.69-12.59,4.52-17.99.68-3.07.6-6.2.56-9.32.12-3.05.35-6.12-.63-9.06-.25-1.18-.31-2.37-.28-3.58.85,1.18,2.02,2.04,3.21,2.86,1.42.96,2.23,2.5,3.07,3.94,1.98,2.63,3.17,5.6,3.8,8.81,2.22,5.65,1.2,11.94-1.07,17.41-6.61,13.41-12.84,18.05-19.59,26.24-3.38,3.86-5.08,5.11-5.85,6.47-2.68,4.71-6.71,9.81-10.49,15.39-1.28-5.89-1.38-10.58.67-13.96Zm-49.4,157.21c-2.94-1.33-6.06-2.35-8.73-4.22-1.03-.74-1.93-1.67-2.63-2.73.67.18,1.34.31,2.03.37,7.55.57,15.11-1.44,22.66-.39,22.68,2.97,30.3,20.46,37.09,39.78-8.34-7.61-17.02-14.87-27.18-19.95-7.73-4.31-15.05-9.45-23.25-12.86Zm55.41,90.51c-6.94-9.77-17.26-17.28-29.79-19.13,19.97-3.53,37.66,1.07,46.91,20.58,4.94,8.31,7.67,17.64,9.09,27.16-9.81-9.63-16.95-18.22-26.22-28.61Zm29.91,155.07c6.04,10.17-.44,23.07,2.82,44.96-6.74-20.47-5.44-26.25-2.82-44.96Zm-7.03-242.12c-5.47-15.1-6.68-31.31-5.79-47.24,4.67,12.1,10.16,24.04,13.09,36.72,1.87,12.08.41,24.79,5.43,36.28-8-6.26-10.07-16.51-12.73-25.75Zm11.59,305.75c19.04,16.13,37.96,13.02,47.46,19.2,15.54,10.12-35,8.56-47.46-19.2Z"/>
</svg>